
<svg id="visual" viewBox="0 0 900 600" width="900" height="600" xmlns="http://www.w3.org/2000/svg" xmlns:xlink="http://www.w3.org/1999/xlink" version="1.1"><g stroke-width="1" stroke-linejoin="bevel"><path d="M394 311L302 297L301 424Z" fill="#092130" stroke="#092130"></path><path d="M301 424L404 411L394 311Z" fill="#0e374d" stroke="#0e374d"></path><path d="M193 404L271 463L301 424Z" fill="#081b29" stroke="#081b29"></path><path d="M301 424L411 527L404 411Z" fill="#0d3245" stroke="#0d3245"></path><path d="M302 297L203 322L301 424Z" fill="#051622" stroke="#051622"></path><path d="M203 322L193 404L301 424Z" fill="#0f4964" stroke="#0f4964"></path><path d="M404 411L506 362L394 311Z" fill="#0d3245" stroke="#0d3245"></path><path d="M271 463L411 527L301 424Z" fill="#0d3245" stroke="#0d3245"></path><path d="M404 411L461 522L506 362Z" fill="#0f4964" stroke="#0f4964"></path><path d="M193 404L210 491L271 463Z" fill="#081b29" stroke="#081b29"></path><path d="M271 463L288 600L411 527Z" fill="#0f435c" stroke="#0f435c"></path><path d="M524 283L420 192L394 311Z" fill="#0b2637" stroke="#0b2637"></path><path d="M394 311L332 172L302 297Z" fill="#0f4964" stroke="#0f4964"></path><path d="M302 297L181 202L203 322Z" fill="#0f3d54" stroke="#0f3d54"></path><path d="M420 192L332 172L394 311Z" fill="#0d3245" stroke="#0d3245"></path><path d="M506 362L524 283L394 311Z" fill="#0b2637" stroke="#0b2637"></path><path d="M411 527L461 522L404 411Z" fill="#051622" stroke="#051622"></path><path d="M181 202L133 289L203 322Z" fill="#0c2c3e" stroke="#0c2c3e"></path><path d="M203 322L133 289L193 404Z" fill="#0f435c" stroke="#0f435c"></path><path d="M193 404L124 475L210 491Z" fill="#0f435c" stroke="#0f435c"></path><path d="M332 172L181 202L302 297Z" fill="#051622" stroke="#051622"></path><path d="M524 283L533 214L420 192Z" fill="#0b2637" stroke="#0b2637"></path><path d="M417 96L302 104L332 172Z" fill="#0d3245" stroke="#0d3245"></path><path d="M92 428L124 475L193 404Z" fill="#0f435c" stroke="#0f435c"></path><path d="M209 600L288 600L210 491Z" fill="#0f4964" stroke="#0f4964"></path><path d="M210 491L288 600L271 463Z" fill="#00101c" stroke="#00101c"></path><path d="M411 527L438 600L461 522Z" fill="#0f3d54" stroke="#0f3d54"></path><path d="M506 362L583 290L524 283Z" fill="#092130" stroke="#092130"></path><path d="M524 283L572 228L533 214Z" fill="#0f435c" stroke="#0f435c"></path><path d="M597 367L583 290L506 362Z" fill="#081b29" stroke="#081b29"></path><path d="M133 289L92 428L193 404Z" fill="#0d3245" stroke="#0d3245"></path><path d="M636 486L597 367L506 362Z" fill="#0c2c3e" stroke="#0c2c3e"></path><path d="M288 600L438 600L411 527Z" fill="#081b29" stroke="#081b29"></path><path d="M461 522L636 486L506 362Z" fill="#0c2c3e" stroke="#0c2c3e"></path><path d="M332 172L218 113L181 202Z" fill="#0d3245" stroke="#0d3245"></path><path d="M417 96L332 172L420 192Z" fill="#051622" stroke="#051622"></path><path d="M583 290L572 228L524 283Z" fill="#0c2c3e" stroke="#0c2c3e"></path><path d="M497 99L417 96L420 192Z" fill="#092130" stroke="#092130"></path><path d="M670 269L572 228L583 290Z" fill="#092130" stroke="#092130"></path><path d="M107 600L209 600L210 491Z" fill="#00101c" stroke="#00101c"></path><path d="M107 600L210 491L124 475Z" fill="#081b29" stroke="#081b29"></path><path d="M302 104L218 113L332 172Z" fill="#0b2637" stroke="#0b2637"></path><path d="M181 202L81 191L133 289Z" fill="#00101c" stroke="#00101c"></path><path d="M497 99L420 192L533 214Z" fill="#0e374d" stroke="#0e374d"></path><path d="M438 600L519 600L461 522Z" fill="#00101c" stroke="#00101c"></path><path d="M637 86L497 99L533 214Z" fill="#051622" stroke="#051622"></path><path d="M103 120L81 191L181 202Z" fill="#0e374d" stroke="#0e374d"></path><path d="M133 289L0 365L92 428Z" fill="#00101c" stroke="#00101c"></path><path d="M519 600L636 486L461 522Z" fill="#0b2637" stroke="#0b2637"></path><path d="M597 367L670 269L583 290Z" fill="#081b29" stroke="#081b29"></path><path d="M0 472L107 600L124 475Z" fill="#00101c" stroke="#00101c"></path><path d="M117 0L103 120L218 113Z" fill="#051622" stroke="#051622"></path><path d="M218 113L103 120L181 202Z" fill="#0c2c3e" stroke="#0c2c3e"></path><path d="M0 301L0 365L133 289Z" fill="#0c2c3e" stroke="#0c2c3e"></path><path d="M92 428L0 472L124 475Z" fill="#0f3d54" stroke="#0f3d54"></path><path d="M0 301L133 289L81 191Z" fill="#051622" stroke="#051622"></path><path d="M706 360L670 269L597 367Z" fill="#0b2637" stroke="#0b2637"></path><path d="M572 228L637 86L533 214Z" fill="#0b2637" stroke="#0b2637"></path><path d="M0 211L0 301L81 191Z" fill="#0f435c" stroke="#0f435c"></path><path d="M519 600L598 600L636 486Z" fill="#092130" stroke="#092130"></path><path d="M0 365L0 472L92 428Z" fill="#081b29" stroke="#081b29"></path><path d="M495 0L381 0L417 96Z" fill="#0c2c3e" stroke="#0c2c3e"></path><path d="M417 96L381 0L302 104Z" fill="#051622" stroke="#051622"></path><path d="M302 104L280 0L218 113Z" fill="#0f3d54" stroke="#0f3d54"></path><path d="M381 0L280 0L302 104Z" fill="#0f435c" stroke="#0f435c"></path><path d="M636 486L706 360L597 367Z" fill="#092130" stroke="#092130"></path><path d="M694 495L706 360L636 486Z" fill="#092130" stroke="#092130"></path><path d="M670 269L672 200L572 228Z" fill="#0e374d" stroke="#0e374d"></path><path d="M497 99L495 0L417 96Z" fill="#00101c" stroke="#00101c"></path><path d="M768 204L672 200L670 269Z" fill="#00101c" stroke="#00101c"></path><path d="M0 75L0 211L81 191Z" fill="#0f435c" stroke="#0f435c"></path><path d="M700 600L694 495L636 486Z" fill="#051622" stroke="#051622"></path><path d="M280 0L205 0L218 113Z" fill="#0b2637" stroke="#0b2637"></path><path d="M103 120L0 75L81 191Z" fill="#0e374d" stroke="#0e374d"></path><path d="M586 0L495 0L497 99Z" fill="#051622" stroke="#051622"></path><path d="M672 200L637 86L572 228Z" fill="#092130" stroke="#092130"></path><path d="M0 472L0 600L107 600Z" fill="#092130" stroke="#092130"></path><path d="M205 0L117 0L218 113Z" fill="#0e374d" stroke="#0e374d"></path><path d="M768 204L672 93L672 200Z" fill="#0b2637" stroke="#0b2637"></path><path d="M672 200L672 93L637 86Z" fill="#0f435c" stroke="#0f435c"></path><path d="M637 86L586 0L497 99Z" fill="#0f3d54" stroke="#0f3d54"></path><path d="M598 600L700 600L636 486Z" fill="#0f435c" stroke="#0f435c"></path><path d="M829 262L670 269L706 360Z" fill="#092130" stroke="#092130"></path><path d="M722 0L586 0L637 86Z" fill="#0b2637" stroke="#0b2637"></path><path d="M117 0L0 75L103 120Z" fill="#0b2637" stroke="#0b2637"></path><path d="M829 262L768 204L670 269Z" fill="#00101c" stroke="#00101c"></path><path d="M815 435L706 360L694 495Z" fill="#0c2c3e" stroke="#0c2c3e"></path><path d="M815 499L815 435L694 495Z" fill="#00101c" stroke="#00101c"></path><path d="M789 600L815 499L694 495Z" fill="#00101c" stroke="#00101c"></path><path d="M117 0L0 0L0 75Z" fill="#0f3d54" stroke="#0f3d54"></path><path d="M900 371L829 262L815 435Z" fill="#051622" stroke="#051622"></path><path d="M815 435L829 262L706 360Z" fill="#0c2c3e" stroke="#0c2c3e"></path><path d="M768 0L722 0L819 64Z" fill="#0d3245" stroke="#0d3245"></path><path d="M672 93L722 0L637 86Z" fill="#0e374d" stroke="#0e374d"></path><path d="M700 600L789 600L694 495Z" fill="#092130" stroke="#092130"></path><path d="M722 0L672 93L819 64Z" fill="#00101c" stroke="#00101c"></path><path d="M819 64L672 93L768 204Z" fill="#0c2c3e" stroke="#0c2c3e"></path><path d="M900 519L900 371L815 435Z" fill="#0f4964" stroke="#0f4964"></path><path d="M900 115L819 64L768 204Z" fill="#0c2c3e" stroke="#0c2c3e"></path><path d="M900 519L815 435L815 499Z" fill="#0b2637" stroke="#0b2637"></path><path d="M900 232L768 204L829 262Z" fill="#0f3d54" stroke="#0f3d54"></path><path d="M900 371L900 274L829 262Z" fill="#0d3245" stroke="#0d3245"></path><path d="M900 274L900 232L829 262Z" fill="#0c2c3e" stroke="#0c2c3e"></path><path d="M900 600L900 519L815 499Z" fill="#0f4964" stroke="#0f4964"></path><path d="M789 600L900 600L815 499Z" fill="#0f435c" stroke="#0f435c"></path><path d="M900 232L900 115L768 204Z" fill="#0d3245" stroke="#0d3245"></path><path d="M819 64L900 0L768 0Z" fill="#051622" stroke="#051622"></path><path d="M900 115L900 0L819 64Z" fill="#0b2637" stroke="#0b2637"></path></g></svg>