<svg id="visual" viewBox="0 0 900 600" width="900" height="600" xmlns="http://www.w3.org/2000/svg" xmlns:xlink="http://www.w3.org/1999/xlink" version="1.1"><g stroke-width="1" stroke-linejoin="bevel"><path d="M451 306L566.5 369L565.5 270Z" fill="#a2b7c0" stroke="#a2b7c0"></path><path d="M451 306L481 428L566.5 369Z" fill="#afc1c9" stroke="#afc1c9"></path><path d="M565.5 270L471 187L451 306Z" fill="#c9d5db" stroke="#c9d5db"></path><path d="M707 324L592.5 197L565.5 270Z" fill="#c9d5db" stroke="#c9d5db"></path><path d="M565.5 270L592.5 197L471 187Z" fill="#e4eaed" stroke="#e4eaed"></path><path d="M481 428L593.5 465L566.5 369Z" fill="#bccbd2" stroke="#bccbd2"></path><path d="M566.5 369L707 324L565.5 270Z" fill="#95adb7" stroke="#95adb7"></path><path d="M698 380L707 324L566.5 369Z" fill="#e4eaed" stroke="#e4eaed"></path><path d="M593.5 465L698 380L566.5 369Z" fill="#7c99a6" stroke="#7c99a6"></path><path d="M335.5 181L313.5 295L451 306Z" fill="#89a3af" stroke="#89a3af"></path><path d="M451 306L325.5 418L481 428Z" fill="#f1f4f6" stroke="#f1f4f6"></path><path d="M325.5 418L434 514L481 428Z" fill="#bccbd2" stroke="#bccbd2"></path><path d="M481 428L434 514L593.5 465Z" fill="#afc1c9" stroke="#afc1c9"></path><path d="M313.5 295L325.5 418L451 306Z" fill="#89a3af" stroke="#89a3af"></path><path d="M707 324L675 170L592.5 197Z" fill="#d7e0e4" stroke="#d7e0e4"></path><path d="M583.5 84L447 91L471 187Z" fill="#e4eaed" stroke="#e4eaed"></path><path d="M471 187L335.5 181L451 306Z" fill="#7c99a6" stroke="#7c99a6"></path><path d="M371.5 101L335.5 181L471 187Z" fill="#f1f4f6" stroke="#f1f4f6"></path><path d="M583.5 84L471 187L592.5 197Z" fill="#afc1c9" stroke="#afc1c9"></path><path d="M586.5 600L668 513L593.5 465Z" fill="#a2b7c0" stroke="#a2b7c0"></path><path d="M593.5 465L668 513L698 380Z" fill="#d7e0e4" stroke="#d7e0e4"></path><path d="M675 170L583.5 84L592.5 197Z" fill="#c9d5db" stroke="#c9d5db"></path><path d="M447 91L371.5 101L471 187Z" fill="#a2b7c0" stroke="#a2b7c0"></path><path d="M248 204L313.5 295L335.5 181Z" fill="#89a3af" stroke="#89a3af"></path><path d="M248 204L254 303L313.5 295Z" fill="#89a3af" stroke="#89a3af"></path><path d="M313.5 295L254 303L325.5 418Z" fill="#f1f4f6" stroke="#f1f4f6"></path><path d="M325.5 418L330.5 512L434 514Z" fill="#bccbd2" stroke="#bccbd2"></path><path d="M251 488L330.5 512L325.5 418Z" fill="#ffffff" stroke="#ffffff"></path><path d="M675 170L672 99L583.5 84Z" fill="#ffffff" stroke="#ffffff"></path><path d="M762.5 204L672 99L675 170Z" fill="#c9d5db" stroke="#c9d5db"></path><path d="M807.5 330L762.5 204L707 324Z" fill="#89a3af" stroke="#89a3af"></path><path d="M707 324L762.5 204L675 170Z" fill="#d7e0e4" stroke="#d7e0e4"></path><path d="M807.5 330L707 324L810.5 374Z" fill="#f1f4f6" stroke="#f1f4f6"></path><path d="M434 514L586.5 600L593.5 465Z" fill="#7c99a6" stroke="#7c99a6"></path><path d="M448 600L586.5 600L434 514Z" fill="#89a3af" stroke="#89a3af"></path><path d="M370.5 600L448 600L434 514Z" fill="#bccbd2" stroke="#bccbd2"></path><path d="M810.5 374L707 324L698 380Z" fill="#ffffff" stroke="#ffffff"></path><path d="M235 125L248 204L335.5 181Z" fill="#d7e0e4" stroke="#d7e0e4"></path><path d="M765.5 510L810.5 374L698 380Z" fill="#bccbd2" stroke="#bccbd2"></path><path d="M765.5 510L698 380L668 513Z" fill="#bccbd2" stroke="#bccbd2"></path><path d="M586.5 600L641 600L668 513Z" fill="#ffffff" stroke="#ffffff"></path><path d="M115.5 427L216 393L97.5 297Z" fill="#f1f4f6" stroke="#f1f4f6"></path><path d="M254 303L216 393L325.5 418Z" fill="#afc1c9" stroke="#afc1c9"></path><path d="M778.5 600L765.5 510L668 513Z" fill="#e4eaed" stroke="#e4eaed"></path><path d="M216 393L251 488L325.5 418Z" fill="#a2b7c0" stroke="#a2b7c0"></path><path d="M330.5 512L370.5 600L434 514Z" fill="#bccbd2" stroke="#bccbd2"></path><path d="M240 600L370.5 600L330.5 512Z" fill="#ffffff" stroke="#ffffff"></path><path d="M660 0L566.5 0L583.5 84Z" fill="#bccbd2" stroke="#bccbd2"></path><path d="M583.5 84L468 0L447 91Z" fill="#95adb7" stroke="#95adb7"></path><path d="M447 91L346.5 0L371.5 101Z" fill="#ffffff" stroke="#ffffff"></path><path d="M566.5 0L468 0L583.5 84Z" fill="#95adb7" stroke="#95adb7"></path><path d="M371.5 101L235 125L335.5 181Z" fill="#bccbd2" stroke="#bccbd2"></path><path d="M258 0L235 125L371.5 101Z" fill="#d7e0e4" stroke="#d7e0e4"></path><path d="M97.5 297L216 393L254 303Z" fill="#bccbd2" stroke="#bccbd2"></path><path d="M672 99L660 0L583.5 84Z" fill="#89a3af" stroke="#89a3af"></path><path d="M764.5 0L660 0L672 99Z" fill="#89a3af" stroke="#89a3af"></path><path d="M468 0L346.5 0L447 91Z" fill="#89a3af" stroke="#89a3af"></path><path d="M900 225L818.5 94L762.5 204Z" fill="#c9d5db" stroke="#c9d5db"></path><path d="M762.5 204L818.5 94L672 99Z" fill="#a2b7c0" stroke="#a2b7c0"></path><path d="M900 225L762.5 204L807.5 330Z" fill="#7c99a6" stroke="#7c99a6"></path><path d="M900 387L900 331L810.5 374Z" fill="#bccbd2" stroke="#bccbd2"></path><path d="M810.5 374L900 331L807.5 330Z" fill="#c9d5db" stroke="#c9d5db"></path><path d="M641 600L778.5 600L668 513Z" fill="#e4eaed" stroke="#e4eaed"></path><path d="M900 496L900 387L810.5 374Z" fill="#e4eaed" stroke="#e4eaed"></path><path d="M900 496L810.5 374L765.5 510Z" fill="#afc1c9" stroke="#afc1c9"></path><path d="M900 331L900 225L807.5 330Z" fill="#bccbd2" stroke="#bccbd2"></path><path d="M251 488L240 600L330.5 512Z" fill="#a2b7c0" stroke="#a2b7c0"></path><path d="M136.5 516L240 600L251 488Z" fill="#afc1c9" stroke="#afc1c9"></path><path d="M818.5 94L764.5 0L672 99Z" fill="#d7e0e4" stroke="#d7e0e4"></path><path d="M900 0L764.5 0L818.5 94Z" fill="#c9d5db" stroke="#c9d5db"></path><path d="M346.5 0L258 0L371.5 101Z" fill="#d7e0e4" stroke="#d7e0e4"></path><path d="M97.5 297L254 303L248 204Z" fill="#c9d5db" stroke="#c9d5db"></path><path d="M216 393L136.5 516L251 488Z" fill="#95adb7" stroke="#95adb7"></path><path d="M97.5 297L248 204L77.5 193Z" fill="#a2b7c0" stroke="#a2b7c0"></path><path d="M778.5 600L900 496L765.5 510Z" fill="#95adb7" stroke="#95adb7"></path><path d="M77.5 193L248 204L235 125Z" fill="#95adb7" stroke="#95adb7"></path><path d="M115.5 427L136.5 516L216 393Z" fill="#95adb7" stroke="#95adb7"></path><path d="M900 225L900 74L818.5 94Z" fill="#afc1c9" stroke="#afc1c9"></path><path d="M105.5 75L77.5 193L235 125Z" fill="#a2b7c0" stroke="#a2b7c0"></path><path d="M97.5 297L0 434L115.5 427Z" fill="#c9d5db" stroke="#c9d5db"></path><path d="M778.5 600L900 600L900 496Z" fill="#a2b7c0" stroke="#a2b7c0"></path><path d="M0 485L136.5 516L115.5 427Z" fill="#95adb7" stroke="#95adb7"></path><path d="M0 600L133.5 600L136.5 516Z" fill="#f1f4f6" stroke="#f1f4f6"></path><path d="M136.5 516L133.5 600L240 600Z" fill="#afc1c9" stroke="#afc1c9"></path><path d="M141.5 0L105.5 75L235 125Z" fill="#89a3af" stroke="#89a3af"></path><path d="M258 0L141.5 0L235 125Z" fill="#c9d5db" stroke="#c9d5db"></path><path d="M900 74L900 0L818.5 94Z" fill="#c9d5db" stroke="#c9d5db"></path><path d="M0 232L77.5 193L0 65Z" fill="#ffffff" stroke="#ffffff"></path><path d="M0 232L97.5 297L77.5 193Z" fill="#89a3af" stroke="#89a3af"></path><path d="M0 232L0 290L97.5 297Z" fill="#ffffff" stroke="#ffffff"></path><path d="M0 65L77.5 193L105.5 75Z" fill="#f1f4f6" stroke="#f1f4f6"></path><path d="M0 290L0 434L97.5 297Z" fill="#ffffff" stroke="#ffffff"></path><path d="M0 434L0 485L115.5 427Z" fill="#ffffff" stroke="#ffffff"></path><path d="M0 0L0 65L105.5 75Z" fill="#d7e0e4" stroke="#d7e0e4"></path><path d="M0 485L0 600L136.5 516Z" fill="#d7e0e4" stroke="#d7e0e4"></path><path d="M141.5 0L0 0L105.5 75Z" fill="#d7e0e4" stroke="#d7e0e4"></path></g></svg>